<?xml version="1.0" encoding="UTF-8" standalone="no"?>
<!DOCTYPE svg PUBLIC "-//W3C//DTD SVG 1.1//EN"
 "http://www.w3.org/Graphics/SVG/1.1/DTD/svg11.dtd">
<!-- Generated by graphviz version 2.43.0 (0)
 -->
<!-- Title: %3 Pages: 1 -->
<svg width="499pt" height="800pt"
 viewBox="0.00 0.00 499.27 800.00" xmlns="http://www.w3.org/2000/svg" xmlns:xlink="http://www.w3.org/1999/xlink">
<g id="graph0" class="graph" transform="scale(1 1) rotate(0) translate(4 796)">
<title>%3</title>
<polygon fill="white" stroke="transparent" points="-4,4 -4,-796 495.27,-796 495.27,4 -4,4"/>
<!-- src/ignore.c -->
<g id="node1" class="node">
<title>src/ignore.c</title>
<ellipse fill="none" stroke="black" cx="90.99" cy="-774" rx="65.79" ry="18"/>
<text text-anchor="middle" x="90.99" y="-770.3" font-family="Times,serif" font-size="14.00">src/ignore.c</text>
</g>
<!-- src/ignore.o -->
<g id="node2" class="node">
<title>src/ignore.o</title>
<ellipse fill="none" stroke="black" cx="309.63" cy="-774" rx="65.79" ry="18"/>
<text text-anchor="middle" x="309.63" y="-770.3" font-family="Times,serif" font-size="14.00">src/ignore.o</text>
</g>
<!-- src/ignore.c&#45;&gt;src/ignore.o -->
<g id="edge1" class="edge">
<title>src/ignore.c&#45;&gt;src/ignore.o</title>
<path fill="none" stroke="black" d="M156.7,-774C180.91,-774 208.62,-774 233.69,-774"/>
<polygon fill="black" stroke="black" points="233.88,-777.5 243.88,-774 233.88,-770.5 233.88,-777.5"/>
</g>
<!-- ag -->
<g id="node26" class="node">
<title>ag</title>
<ellipse fill="none" stroke="black" cx="464.27" cy="-396" rx="27" ry="18"/>
<text text-anchor="middle" x="464.27" y="-392.3" font-family="Times,serif" font-size="14.00">ag</text>
</g>
<!-- src/ignore.o&#45;&gt;ag -->
<g id="edge16" class="edge">
<title>src/ignore.o&#45;&gt;ag</title>
<path fill="none" stroke="black" d="M369.73,-766.54C381.6,-762.48 392.96,-756.32 401.27,-747 443.95,-699.12 458.16,-498.62 462.02,-424.07"/>
<polygon fill="black" stroke="black" points="465.52,-424.18 462.52,-414.02 458.53,-423.83 465.52,-424.18"/>
</g>
<!-- src/log.c -->
<g id="node3" class="node">
<title>src/log.c</title>
<ellipse fill="none" stroke="black" cx="90.99" cy="-720" rx="50.09" ry="18"/>
<text text-anchor="middle" x="90.99" y="-716.3" font-family="Times,serif" font-size="14.00">src/log.c</text>
</g>
<!-- src/log.o -->
<g id="node4" class="node">
<title>src/log.o</title>
<ellipse fill="none" stroke="black" cx="309.63" cy="-720" rx="50.09" ry="18"/>
<text text-anchor="middle" x="309.63" y="-716.3" font-family="Times,serif" font-size="14.00">src/log.o</text>
</g>
<!-- src/log.c&#45;&gt;src/log.o -->
<g id="edge2" class="edge">
<title>src/log.c&#45;&gt;src/log.o</title>
<path fill="none" stroke="black" d="M141.15,-720C173.17,-720 215.13,-720 249.04,-720"/>
<polygon fill="black" stroke="black" points="249.29,-723.5 259.29,-720 249.29,-716.5 249.29,-723.5"/>
</g>
<!-- src/log.o&#45;&gt;ag -->
<g id="edge17" class="edge">
<title>src/log.o&#45;&gt;ag</title>
<path fill="none" stroke="black" d="M358.2,-715.61C373.89,-711.85 390.15,-705.09 401.27,-693 437.41,-653.7 455.19,-490.41 461.02,-424.14"/>
<polygon fill="black" stroke="black" points="464.53,-424.27 461.89,-414.01 457.55,-423.68 464.53,-424.27"/>
</g>
<!-- src/options.c -->
<g id="node5" class="node">
<title>src/options.c</title>
<ellipse fill="none" stroke="black" cx="90.99" cy="-666" rx="69.59" ry="18"/>
<text text-anchor="middle" x="90.99" y="-662.3" font-family="Times,serif" font-size="14.00">src/options.c</text>
</g>
<!-- src/options.o -->
<g id="node6" class="node">
<title>src/options.o</title>
<ellipse fill="none" stroke="black" cx="309.63" cy="-666" rx="70.39" ry="18"/>
<text text-anchor="middle" x="309.63" y="-662.3" font-family="Times,serif" font-size="14.00">src/options.o</text>
</g>
<!-- src/options.c&#45;&gt;src/options.o -->
<g id="edge3" class="edge">
<title>src/options.c&#45;&gt;src/options.o</title>
<path fill="none" stroke="black" d="M160.54,-666C182.36,-666 206.68,-666 229.2,-666"/>
<polygon fill="black" stroke="black" points="229.41,-669.5 239.41,-666 229.41,-662.5 229.41,-669.5"/>
</g>
<!-- src/options.o&#45;&gt;ag -->
<g id="edge18" class="edge">
<title>src/options.o&#45;&gt;ag</title>
<path fill="none" stroke="black" d="M371.56,-657.25C382.62,-653.23 393.19,-647.41 401.27,-639 430.96,-608.11 451.64,-481.09 459.62,-424.01"/>
<polygon fill="black" stroke="black" points="463.12,-424.27 461,-413.88 456.18,-423.32 463.12,-424.27"/>
</g>
<!-- src/print.c -->
<g id="node7" class="node">
<title>src/print.c</title>
<ellipse fill="none" stroke="black" cx="90.99" cy="-612" rx="58.49" ry="18"/>
<text text-anchor="middle" x="90.99" y="-608.3" font-family="Times,serif" font-size="14.00">src/print.c</text>
</g>
<!-- src/print.o -->
<g id="node8" class="node">
<title>src/print.o</title>
<ellipse fill="none" stroke="black" cx="309.63" cy="-612" rx="59.29" ry="18"/>
<text text-anchor="middle" x="309.63" y="-608.3" font-family="Times,serif" font-size="14.00">src/print.o</text>
</g>
<!-- src/print.c&#45;&gt;src/print.o -->
<g id="edge4" class="edge">
<title>src/print.c&#45;&gt;src/print.o</title>
<path fill="none" stroke="black" d="M149.76,-612C177.57,-612 211.1,-612 240.18,-612"/>
<polygon fill="black" stroke="black" points="240.26,-615.5 250.26,-612 240.26,-608.5 240.26,-615.5"/>
</g>
<!-- src/print.o&#45;&gt;ag -->
<g id="edge19" class="edge">
<title>src/print.o&#45;&gt;ag</title>
<path fill="none" stroke="black" d="M364.53,-604.98C377.91,-600.98 391.26,-594.73 401.27,-585 445.91,-541.56 458.43,-465.5 461.92,-424.36"/>
<polygon fill="black" stroke="black" points="465.42,-424.44 462.66,-414.21 458.44,-423.93 465.42,-424.44"/>
</g>
<!-- src/print_w32.c -->
<g id="node9" class="node">
<title>src/print_w32.c</title>
<ellipse fill="none" stroke="black" cx="90.99" cy="-558" rx="82.59" ry="18"/>
<text text-anchor="middle" x="90.99" y="-554.3" font-family="Times,serif" font-size="14.00">src/print_w32.c</text>
</g>
<!-- src/print_w32.o -->
<g id="node10" class="node">
<title>src/print_w32.o</title>
<ellipse fill="none" stroke="black" cx="309.63" cy="-558" rx="83.39" ry="18"/>
<text text-anchor="middle" x="309.63" y="-554.3" font-family="Times,serif" font-size="14.00">src/print_w32.o</text>
</g>
<!-- src/print_w32.c&#45;&gt;src/print_w32.o -->
<g id="edge5" class="edge">
<title>src/print_w32.c&#45;&gt;src/print_w32.o</title>
<path fill="none" stroke="black" d="M173.58,-558C187.48,-558 202.01,-558 216.16,-558"/>
<polygon fill="black" stroke="black" points="216.39,-561.5 226.39,-558 216.39,-554.5 216.39,-561.5"/>
</g>
<!-- src/print_w32.o&#45;&gt;ag -->
<g id="edge20" class="edge">
<title>src/print_w32.o&#45;&gt;ag</title>
<path fill="none" stroke="black" d="M374.65,-546.48C384.3,-542.7 393.58,-537.67 401.27,-531 433.5,-503.02 449.97,-454.8 457.58,-424.2"/>
<polygon fill="black" stroke="black" points="461.06,-424.71 459.92,-414.17 454.24,-423.12 461.06,-424.71"/>
</g>
<!-- src/scandir.c -->
<g id="node11" class="node">
<title>src/scandir.c</title>
<ellipse fill="none" stroke="black" cx="90.99" cy="-504" rx="68.79" ry="18"/>
<text text-anchor="middle" x="90.99" y="-500.3" font-family="Times,serif" font-size="14.00">src/scandir.c</text>
</g>
<!-- src/scandir.o -->
<g id="node12" class="node">
<title>src/scandir.o</title>
<ellipse fill="none" stroke="black" cx="309.63" cy="-504" rx="69.59" ry="18"/>
<text text-anchor="middle" x="309.63" y="-500.3" font-family="Times,serif" font-size="14.00">src/scandir.o</text>
</g>
<!-- src/scandir.c&#45;&gt;src/scandir.o -->
<g id="edge6" class="edge">
<title>src/scandir.c&#45;&gt;src/scandir.o</title>
<path fill="none" stroke="black" d="M159.94,-504C182.1,-504 206.89,-504 229.78,-504"/>
<polygon fill="black" stroke="black" points="229.8,-507.5 239.8,-504 229.8,-500.5 229.8,-507.5"/>
</g>
<!-- src/scandir.o&#45;&gt;ag -->
<g id="edge21" class="edge">
<title>src/scandir.o&#45;&gt;ag</title>
<path fill="none" stroke="black" d="M366.33,-493.38C378.51,-489.48 390.86,-484.18 401.27,-477 421.75,-462.88 438.43,-439.86 449.31,-421.96"/>
<polygon fill="black" stroke="black" points="452.44,-423.54 454.45,-413.14 446.39,-420.01 452.44,-423.54"/>
</g>
<!-- src/search.c -->
<g id="node13" class="node">
<title>src/search.c</title>
<ellipse fill="none" stroke="black" cx="90.99" cy="-450" rx="66.09" ry="18"/>
<text text-anchor="middle" x="90.99" y="-446.3" font-family="Times,serif" font-size="14.00">src/search.c</text>
</g>
<!-- src/search.o -->
<g id="node14" class="node">
<title>src/search.o</title>
<ellipse fill="none" stroke="black" cx="309.63" cy="-450" rx="66.89" ry="18"/>
<text text-anchor="middle" x="309.63" y="-446.3" font-family="Times,serif" font-size="14.00">src/search.o</text>
</g>
<!-- src/search.c&#45;&gt;src/search.o -->
<g id="edge7" class="edge">
<title>src/search.c&#45;&gt;src/search.o</title>
<path fill="none" stroke="black" d="M157.58,-450C181.11,-450 207.86,-450 232.23,-450"/>
<polygon fill="black" stroke="black" points="232.52,-453.5 242.52,-450 232.52,-446.5 232.52,-453.5"/>
</g>
<!-- src/search.o&#45;&gt;ag -->
<g id="edge22" class="edge">
<title>src/search.o&#45;&gt;ag</title>
<path fill="none" stroke="black" d="M357.56,-437.2C371.72,-433.02 387.23,-428.13 401.27,-423 411.52,-419.25 422.51,-414.67 432.34,-410.34"/>
<polygon fill="black" stroke="black" points="434.02,-413.43 441.72,-406.15 431.16,-407.04 434.02,-413.43"/>
</g>
<!-- src/lang.c -->
<g id="node15" class="node">
<title>src/lang.c</title>
<ellipse fill="none" stroke="black" cx="90.99" cy="-396" rx="55.79" ry="18"/>
<text text-anchor="middle" x="90.99" y="-392.3" font-family="Times,serif" font-size="14.00">src/lang.c</text>
</g>
<!-- src/lang.o -->
<g id="node16" class="node">
<title>src/lang.o</title>
<ellipse fill="none" stroke="black" cx="309.63" cy="-396" rx="55.79" ry="18"/>
<text text-anchor="middle" x="309.63" y="-392.3" font-family="Times,serif" font-size="14.00">src/lang.o</text>
</g>
<!-- src/lang.c&#45;&gt;src/lang.o -->
<g id="edge8" class="edge">
<title>src/lang.c&#45;&gt;src/lang.o</title>
<path fill="none" stroke="black" d="M146.94,-396C176.22,-396 212.44,-396 243.17,-396"/>
<polygon fill="black" stroke="black" points="243.36,-399.5 253.36,-396 243.36,-392.5 243.36,-399.5"/>
</g>
<!-- src/lang.o&#45;&gt;ag -->
<g id="edge23" class="edge">
<title>src/lang.o&#45;&gt;ag</title>
<path fill="none" stroke="black" d="M365.73,-396C386.01,-396 408.45,-396 426.69,-396"/>
<polygon fill="black" stroke="black" points="426.9,-399.5 436.9,-396 426.9,-392.5 426.9,-399.5"/>
</g>
<!-- src/util.c -->
<g id="node17" class="node">
<title>src/util.c</title>
<ellipse fill="none" stroke="black" cx="90.99" cy="-342" rx="51.19" ry="18"/>
<text text-anchor="middle" x="90.99" y="-338.3" font-family="Times,serif" font-size="14.00">src/util.c</text>
</g>
<!-- src/util.o -->
<g id="node18" class="node">
<title>src/util.o</title>
<ellipse fill="none" stroke="black" cx="309.63" cy="-342" rx="51.99" ry="18"/>
<text text-anchor="middle" x="309.63" y="-338.3" font-family="Times,serif" font-size="14.00">src/util.o</text>
</g>
<!-- src/util.c&#45;&gt;src/util.o -->
<g id="edge9" class="edge">
<title>src/util.c&#45;&gt;src/util.o</title>
<path fill="none" stroke="black" d="M142.51,-342C173.78,-342 214.14,-342 247.25,-342"/>
<polygon fill="black" stroke="black" points="247.28,-345.5 257.28,-342 247.28,-338.5 247.28,-345.5"/>
</g>
<!-- src/util.o&#45;&gt;ag -->
<g id="edge24" class="edge">
<title>src/util.o&#45;&gt;ag</title>
<path fill="none" stroke="black" d="M351.13,-352.93C366.91,-357.48 385.07,-363.09 401.27,-369 411.52,-372.75 422.51,-377.33 432.34,-381.66"/>
<polygon fill="black" stroke="black" points="431.16,-384.96 441.72,-385.85 434.02,-378.57 431.16,-384.96"/>
</g>
<!-- src/decompress.c -->
<g id="node19" class="node">
<title>src/decompress.c</title>
<ellipse fill="none" stroke="black" cx="90.99" cy="-288" rx="90.98" ry="18"/>
<text text-anchor="middle" x="90.99" y="-284.3" font-family="Times,serif" font-size="14.00">src/decompress.c</text>
</g>
<!-- src/decompress.o -->
<g id="node20" class="node">
<title>src/decompress.o</title>
<ellipse fill="none" stroke="black" cx="309.63" cy="-288" rx="91.78" ry="18"/>
<text text-anchor="middle" x="309.63" y="-284.3" font-family="Times,serif" font-size="14.00">src/decompress.o</text>
</g>
<!-- src/decompress.c&#45;&gt;src/decompress.o -->
<g id="edge10" class="edge">
<title>src/decompress.c&#45;&gt;src/decompress.o</title>
<path fill="none" stroke="black" d="M182.3,-288C190.63,-288 199.11,-288 207.54,-288"/>
<polygon fill="black" stroke="black" points="207.77,-291.5 217.77,-288 207.77,-284.5 207.77,-291.5"/>
</g>
<!-- src/decompress.o&#45;&gt;ag -->
<g id="edge25" class="edge">
<title>src/decompress.o&#45;&gt;ag</title>
<path fill="none" stroke="black" d="M373.45,-301.06C383.25,-304.66 392.89,-309.22 401.27,-315 421.75,-329.12 438.43,-352.14 449.31,-370.04"/>
<polygon fill="black" stroke="black" points="446.39,-371.99 454.45,-378.86 452.44,-368.46 446.39,-371.99"/>
</g>
<!-- src/main.c -->
<g id="node21" class="node">
<title>src/main.c</title>
<ellipse fill="none" stroke="black" cx="90.99" cy="-234" rx="58.49" ry="18"/>
<text text-anchor="middle" x="90.99" y="-230.3" font-family="Times,serif" font-size="14.00">src/main.c</text>
</g>
<!-- src/main.o -->
<g id="node22" class="node">
<title>src/main.o</title>
<ellipse fill="none" stroke="black" cx="309.63" cy="-234" rx="59.29" ry="18"/>
<text text-anchor="middle" x="309.63" y="-230.3" font-family="Times,serif" font-size="14.00">src/main.o</text>
</g>
<!-- src/main.c&#45;&gt;src/main.o -->
<g id="edge11" class="edge">
<title>src/main.c&#45;&gt;src/main.o</title>
<path fill="none" stroke="black" d="M149.76,-234C177.57,-234 211.1,-234 240.18,-234"/>
<polygon fill="black" stroke="black" points="240.26,-237.5 250.26,-234 240.26,-230.5 240.26,-237.5"/>
</g>
<!-- src/main.o&#45;&gt;ag -->
<g id="edge26" class="edge">
<title>src/main.o&#45;&gt;ag</title>
<path fill="none" stroke="black" d="M363.35,-241.66C376.88,-245.66 390.6,-251.74 401.27,-261 433.5,-288.98 449.97,-337.2 457.58,-367.8"/>
<polygon fill="black" stroke="black" points="454.24,-368.88 459.92,-377.83 461.06,-367.29 454.24,-368.88"/>
</g>
<!-- src/zfile.c -->
<g id="node23" class="node">
<title>src/zfile.c</title>
<ellipse fill="none" stroke="black" cx="90.99" cy="-180" rx="55.49" ry="18"/>
<text text-anchor="middle" x="90.99" y="-176.3" font-family="Times,serif" font-size="14.00">src/zfile.c</text>
</g>
<!-- src/zfile.o -->
<g id="node24" class="node">
<title>src/zfile.o</title>
<ellipse fill="none" stroke="black" cx="309.63" cy="-180" rx="55.79" ry="18"/>
<text text-anchor="middle" x="309.63" y="-176.3" font-family="Times,serif" font-size="14.00">src/zfile.o</text>
</g>
<!-- src/zfile.c&#45;&gt;src/zfile.o -->
<g id="edge12" class="edge">
<title>src/zfile.c&#45;&gt;src/zfile.o</title>
<path fill="none" stroke="black" d="M146.38,-180C175.77,-180 212.27,-180 243.2,-180"/>
<polygon fill="black" stroke="black" points="243.46,-183.5 253.46,-180 243.46,-176.5 243.46,-183.5"/>
</g>
<!-- src/zfile.o&#45;&gt;ag -->
<g id="edge27" class="edge">
<title>src/zfile.o&#45;&gt;ag</title>
<path fill="none" stroke="black" d="M362.17,-186.34C376.33,-190.3 390.68,-196.7 401.27,-207 445.91,-250.44 458.43,-326.5 461.92,-367.64"/>
<polygon fill="black" stroke="black" points="458.44,-368.07 462.66,-377.79 465.42,-367.56 458.44,-368.07"/>
</g>
<!-- libpcre.a -->
<g id="node25" class="node">
<title>libpcre.a</title>
<ellipse fill="none" stroke="black" cx="309.63" cy="-126" rx="51.19" ry="18"/>
<text text-anchor="middle" x="309.63" y="-122.3" font-family="Times,serif" font-size="14.00">libpcre.a</text>
</g>
<!-- libpcre.a&#45;&gt;ag -->
<g id="edge13" class="edge">
<title>libpcre.a&#45;&gt;ag</title>
<path fill="none" stroke="black" d="M359.32,-131.02C374.54,-134.86 390.23,-141.52 401.27,-153 430.96,-183.89 451.64,-310.91 459.62,-367.99"/>
<polygon fill="black" stroke="black" points="456.18,-368.68 461,-378.12 463.12,-367.73 456.18,-368.68"/>
</g>
<!-- liblzma.a -->
<g id="node27" class="node">
<title>liblzma.a</title>
<ellipse fill="none" stroke="black" cx="309.63" cy="-72" rx="52.79" ry="18"/>
<text text-anchor="middle" x="309.63" y="-68.3" font-family="Times,serif" font-size="14.00">liblzma.a</text>
</g>
<!-- liblzma.a&#45;&gt;ag -->
<g id="edge14" class="edge">
<title>liblzma.a&#45;&gt;ag</title>
<path fill="none" stroke="black" d="M360.56,-76.98C375.5,-80.84 390.71,-87.52 401.27,-99 437.41,-138.3 455.19,-301.59 461.02,-367.86"/>
<polygon fill="black" stroke="black" points="457.55,-368.32 461.89,-377.99 464.53,-367.73 457.55,-368.32"/>
</g>
<!-- libz.a -->
<g id="node28" class="node">
<title>libz.a</title>
<ellipse fill="none" stroke="black" cx="309.63" cy="-18" rx="36" ry="18"/>
<text text-anchor="middle" x="309.63" y="-14.3" font-family="Times,serif" font-size="14.00">libz.a</text>
</g>
<!-- libz.a&#45;&gt;ag -->
<g id="edge15" class="edge">
<title>libz.a&#45;&gt;ag</title>
<path fill="none" stroke="black" d="M345.46,-19.73C364.62,-22.56 387.28,-29.31 401.27,-45 443.95,-92.88 458.16,-293.38 462.02,-367.93"/>
<polygon fill="black" stroke="black" points="458.53,-368.17 462.52,-377.98 465.52,-367.82 458.53,-368.17"/>
</g>
</g>
</svg>
